<svg xmlns="http://www.w3.org/2000/svg" viewBox="0 0 256 256">
  <defs>
    <linearGradient id="mapcap-gold-grad" x1="0%" y1="0%" x2="100%" y2="100%">
      <stop offset="0%" stop-color="#FFEA83" />
      <stop offset="100%" stop-color="#FFA800" />
    </linearGradient>
  </defs>
  
  <circle cx="128" cy="128" r="120" fill="#1b5e20" />
  <circle cx="128" cy="128" r="110" fill="url(#mapcap-gold-grad)" />
  
  <path 
    fill="#1b5e20" 
    d="M70,80 L70,95 C90,95 90,95 100,95 L100,170 C100,185 85,185 80,185 L80,200 L125,200 L125,185 C120,185 115,185 115,170 L115,95 L145,95 L145,170 C145,185 135,185 130,185 L130,200 L175,200 L175,185 C170,185 160,185 160,170 L160,95 C170,95 170,95 185,95 L185,80 L70,80 Z"
  />
  
  <path fill="#ffffff" opacity="0.5" d="M128,40 Q150,80 128,120 Q106,80 128,40" />
</svg>
